# xmcd
#
# Track frame offsets:
#	150
#	24677
#	47440
#	71460
#	93078
#	103742
#	117655
#	128948
#	146686
#	162915
#	178321
#	183121
#	196794
#	205715
#	222893
#	238543
#	264207
#	286777
#	303197
#	320716
#	341871
#
# Disc length: 4763 seconds
#
# Revision: 0
# Processed by: cddbd v1.4PL0 Copyright (c) Steve Scherf et al.
# Submitted via: dBpowerAMP V4.0
#
DISCID=31129915
DTITLE=Garlic Bread - Self-Titled
DYEAR=2003
DGENRE=Hip-Hop
TTITLE0=Intro (with LiL' HeeZy)
TTITLE1=Da Real World
TTITLE2=Tired Of Da Bia
TTITLE3=The Brain Remix
TTITLE4=Brain (Part II) (Supa Hungry Toast)
TTITLE5=Do It (My Life)
TTITLE6=Fooled (with LiL' HeeZy)
TTITLE7=After The Stroke (Interlude) (with LiL' HeeZy)
TTITLE8=Tribute To Amanda (Black Butch)
TTITLE9=Smack That Butch
TTITLE10=Old School Interlude
TTITLE11=Hit'Em
TTITLE12=Consistant Hits
TTITLE13=Hold On
TTITLE14=Funky (with Janet Jackson) (Interlude)
TTITLE15=Poundcake
TTITLE16=Baby Gurl (with LiL' HeeZy)
TTITLE17=Who Dat Iz (featuring LiL' HeeZy and Lil' Thickness)
TTITLE18=To My Black Folk (Get It Together)
TTITLE19=Our Style (Remix) (with LiL' HeeZy)
TTITLE20=Bust-A-Nut
EXTD=Hi my name is rachel. This a hot hip-hop album from an independent artist named "Garlic Bread". His album is so hot! It's a mix of old-school and new school hip-hop and rnb.
EXTT0=
EXTT1=
EXTT2=
EXTT3=
EXTT4=
EXTT5=
EXTT6=
EXTT7=
EXTT8=
EXTT9=
EXTT10=
EXTT11=
EXTT12=
EXTT13=
EXTT14=
EXTT15=
EXTT16=
EXTT17=
EXTT18=
EXTT19=
EXTT20=
PLAYORDER=
